<?xml version="1.0" standalone="no"?>
<!DOCTYPE svg PUBLIC "-//W3C//DTD SVG 20010904//EN"
 "http://www.w3.org/TR/2001/REC-SVG-20010904/DTD/svg10.dtd">
<svg version="1.0" xmlns="http://www.w3.org/2000/svg"
 width="96.000000pt" height="96.000000pt" viewBox="0 0 96.000000 96.000000"
 preserveAspectRatio="xMidYMid meet">

<g transform="translate(0.000000,96.000000) scale(0.100000,-0.100000)"
fill="#000000" stroke="none">
<path d="M575 923 c-34 -9 -45 -24 -45 -64 l0 -39 -87 -1 c-141 0 -338 -24
-367 -43 -23 -14 -26 -23 -26 -74 0 -54 34 -360 45 -409 9 -39 42 -48 190 -53
134 -5 140 -6 143 -27 3 -17 -5 -24 -47 -38 -65 -21 -101 -50 -101 -81 0 -37
50 -54 158 -54 113 0 181 13 259 50 52 24 63 33 63 53 0 36 -31 58 -93 64
l-55 6 10 28 c10 28 12 29 81 31 154 4 158 4 180 27 20 20 22 33 25 163 3 122
6 145 23 166 16 21 19 41 19 123 0 88 -2 101 -23 125 -23 26 -29 28 -118 30
-52 1 -118 7 -148 13 -29 6 -56 10 -60 10 -3 -1 -15 -4 -26 -6z m105 -28 c47
-8 114 -15 149 -15 93 0 101 -10 101 -124 0 -139 4 -136 -186 -136 -88 0 -164
4 -175 10 -17 10 -19 22 -19 136 0 120 1 125 23 134 12 5 22 9 22 9 0 1 38 -6
85 -14z m-154 -199 c-1 -45 3 -60 22 -78 21 -22 30 -23 146 -21 l123 2 7 -107
c9 -132 5 -136 -111 -145 -43 -3 -176 -14 -296 -24 -221 -17 -241 -16 -258 18
-18 36 -46 354 -32 362 12 8 203 36 268 39 28 2 69 4 91 6 l42 3 -2 -55z"/>
<path d="M620 770 c0 -47 4 -80 10 -80 6 0 10 16 10 35 0 19 4 35 9 35 27 0
41 -15 41 -44 0 -32 14 -65 22 -50 7 17 -4 174 -13 174 -5 0 -9 -16 -9 -36 0
-29 -3 -35 -16 -30 -9 3 -20 6 -25 6 -5 0 -9 16 -9 35 0 19 -4 35 -10 35 -6 0
-10 -33 -10 -80z"/>
<path d="M762 838 c-13 -13 -16 -76 -6 -127 5 -26 11 -31 35 -31 35 0 59 32
59 81 0 63 -55 110 -88 77z m50 -25 c30 -27 18 -113 -16 -113 -16 0 -26 31
-26 81 0 51 11 60 42 32z"/>
</g>
</svg>
